<mxfile host="app.diagrams.net" modified="2023-06-15T07:20:49.313Z" agent="Mozilla/5.0 (Macintosh; Intel Mac OS X 10_15_7) AppleWebKit/537.36 (KHTML, like Gecko) Chrome/114.0.0.0 Safari/537.36" version="21.4.0" etag="Bri2-_IJvYDBbWjO9CDt" type="github">
  <diagram name="第 1 页" id="-o3icReMSOYL-fLf5Zgw">
    <mxGraphModel>
      <root>
        <mxCell id="0" />
        <mxCell id="1" parent="0" />
      </root>
    </mxGraphModel>
  </diagram>
</mxfile>
